# xmcd
#
# Track frame offsets: 
#        150
#        18087
#        35875
#        56326
#        77912
#        101899
#        122926
#        147833
#        165116
#        183373
#        201711
#        235853
#        254362
#        276532
#        290090
#        307063
#        335488
#
# Disc length: 4793 seconds
#
# Revision: 0
# Processed by: cddbd v1.5.2PL0 Copyright (c) Steve Scherf et al.
# Submitted via: ExactAudioCopy v1.3
#
DISCID=0712b711
DTITLE=Various Artist - Akella Presents - vol.114 - Electric Blues  C
DTITLE=D1
DYEAR=2017
DGENRE=Blues
TTITLE0=Phil Carmen - One Foot In Heaven
TTITLE1=Steven Seagal - Dark Angel
TTITLE2=Scrapomatic - Killing Yourself On Purpose
TTITLE3=Paul Orta - Tear Drops
TTITLE4=Sandy Mack - Life Boat
TTITLE5=Helander Blues Co - Love That Burns
TTITLE6=Ruthless Blues - Never Told Me Why
TTITLE7=Nick Moss - For What It's Worth
TTITLE8=Mark Cook - Sweet Sound Of Memphis
TTITLE9=Philipp Fankhauser - Lonely In This Town
TTITLE10=Michael Terry - Procrastination
TTITLE11=Guy Tortora - Too Much Stuff
TTITLE12=Willie Lomax - For Better Or For Worse
TTITLE13=Texas Slim - Welcome To The Game
TTITLE14=Mick Abrahams - Bad Feeling
TTITLE15=Peter Golding - Treasure Of The Blues
TTITLE16=Bryan Lee - Louisiana Woman
EXTD=
EXTT0=
EXTT1=
EXTT2=
EXTT3=
EXTT4=
EXTT5=
EXTT6=
EXTT7=
EXTT8=
EXTT9=
EXTT10=
EXTT11=
EXTT12=
EXTT13=
EXTT14=
EXTT15=
EXTT16=
PLAYORDER=
